<?xml version="1.0" standalone="no"?>
<!DOCTYPE svg PUBLIC "-//W3C//DTD SVG 20010904//EN"
 "http://www.w3.org/TR/2001/REC-SVG-20010904/DTD/svg10.dtd">
<svg version="1.0" xmlns="http://www.w3.org/2000/svg"
 width="96.000000pt" height="96.000000pt" viewBox="0 0 96.000000 96.000000"
 preserveAspectRatio="xMidYMid meet">

<g transform="translate(0.000000,96.000000) scale(0.100000,-0.100000)"
fill="#000000" stroke="none">
<path d="M549 891 l-30 -30 3 -158 c3 -186 4 -187 97 -124 59 41 61 41 151 41
88 0 93 1 121 29 28 28 29 33 29 121 0 88 -1 93 -29 121 l-29 29 -142 0 -142
0 -29 -29z m306 -121 l0 -85 -99 -3 c-85 -2 -103 -6 -135 -28 l-36 -24 -3 102
c-1 56 0 108 2 115 4 11 34 13 138 11 l133 -3 0 -85z"/>
<path d="M142 757 c-21 -22 -22 -31 -22 -238 0 -212 0 -216 23 -237 23 -22 29
-22 338 -22 l316 0 21 23 c20 22 22 33 22 160 l0 137 -30 0 -30 0 0 -130 0
-130 -300 0 -300 0 0 200 0 200 150 0 150 0 0 30 0 30 -158 0 c-153 0 -159 -1
-180 -23z"/>
<path d="M44 225 c-4 -8 -4 -22 0 -30 5 -13 60 -15 438 -13 l433 3 0 25 0 25
-433 3 c-378 2 -433 0 -438 -13z"/>
</g>
</svg>
