<svg version="1.1" xmlns="http://www.w3.org/2000/svg" xmlns:xlink="http://www.w3.org/1999/xlink" width="48.000000pt" height="48.000000pt" viewBox="0,0,256,256"><g fill="#ffffff" fill-rule="nonzero" stroke="none" stroke-width="1" stroke-linecap="butt" stroke-linejoin="miter" stroke-miterlimit="10" stroke-dasharray="" stroke-dashoffset="0" font-family="none" font-weight="none" font-size="none" text-anchor="none" style="mix-blend-mode: normal"><g transform="translate(2.66667,0) scale(5.33333,5.33333)"><g transform="translate(0,48) scale(0.1,-0.1)"><path d="M137,443c-19,-18 2,-23 103,-23c91,0 110,3 110,15c0,12 -18,15 -103,15c-57,0 -107,-3 -110,-7z"></path><path d="M107,383c-19,-19 5,-23 133,-23c118,0 140,2 140,15c0,13 -21,15 -133,15c-74,0 -137,-3 -140,-7z"></path><path d="M82,318c-8,-8 -12,-46 -12,-105v-93h158c110,0 162,4 170,12c8,8 12,46 12,105v93h-158c-110,0 -162,-4 -170,-12zM130,285c0,-8 -7,-15 -15,-15c-8,0 -15,7 -15,15c0,8 7,15 15,15c8,0 15,-7 15,-15zM380,285c0,-8 -7,-15 -15,-15c-8,0 -15,7 -15,15c0,8 7,15 15,15c8,0 15,-7 15,-15zM130,225c0,-8 -7,-15 -15,-15c-8,0 -15,7 -15,15c0,8 7,15 15,15c8,0 15,-7 15,-15zM380,225c0,-8 -7,-15 -15,-15c-8,0 -15,7 -15,15c0,8 7,15 15,15c8,0 15,-7 15,-15zM130,165c0,-8 -7,-15 -15,-15c-8,0 -15,7 -15,15c0,8 7,15 15,15c8,0 15,-7 15,-15zM380,165c0,-8 -7,-15 -15,-15c-8,0 -15,7 -15,15c0,8 7,15 15,15c8,0 15,-7 15,-15z"></path><path d="M37,83c-4,-3 -7,-17 -7,-30c0,-16 6,-23 20,-23c16,0 20,7 20,30c0,28 -17,40 -33,23z"></path><path d="M407,83c-4,-3 -7,-17 -7,-30c0,-16 6,-23 20,-23c16,0 20,7 20,30c0,28 -17,40 -33,23z"></path><path d="M100,60c0,-11 7,-20 15,-20c8,0 15,9 15,20c0,11 -7,20 -15,20c-8,0 -15,-9 -15,-20z"></path><path d="M160,60c0,-11 7,-20 15,-20c8,0 15,9 15,20c0,11 -7,20 -15,20c-8,0 -15,-9 -15,-20z"></path><path d="M220,60c0,-11 7,-20 15,-20c8,0 15,9 15,20c0,11 -7,20 -15,20c-8,0 -15,-9 -15,-20z"></path><path d="M280,60c0,-11 7,-20 15,-20c8,0 15,9 15,20c0,11 -7,20 -15,20c-8,0 -15,-9 -15,-20z"></path><path d="M340,60c0,-11 7,-20 15,-20c8,0 15,9 15,20c0,11 -7,20 -15,20c-8,0 -15,-9 -15,-20z"></path></g></g></g></svg>