<svg version="1.1" xmlns="http://www.w3.org/2000/svg" xmlns:xlink="http://www.w3.org/1999/xlink" width="96.000000pt" height="96.000000pt" viewBox="0,0,256,256"><g fill="#ffffff" fill-rule="nonzero" stroke="none" stroke-width="1" stroke-linecap="butt" stroke-linejoin="miter" stroke-miterlimit="10" stroke-dasharray="" stroke-dashoffset="0" font-family="none" font-weight="none" font-size="none" text-anchor="none" style="mix-blend-mode: normal"><g transform="translate(-0.22951,2.50582) scale(2.66667,2.66667)"><g transform="translate(0,96) scale(0.1,-0.1)"><path d="M310,755c-91,-73 -161,-136 -172,-156c-16,-29 -18,-61 -18,-250c0,-266 -11,-249 152,-249c150,0 148,-2 148,148v112h60h60v-113c0,-149 -2,-147 152,-147c99,0 117,3 131,18c25,27 25,427 1,478c-17,36 -320,285 -346,283c-7,0 -83,-56 -168,-124zM588,728c58,-46 125,-101 149,-124l43,-41v-201v-202h-90h-90v104c0,89 -3,107 -21,130c-19,24 -26,26 -97,26c-64,0 -79,-3 -99,-22c-21,-20 -23,-30 -23,-130v-108h-90h-90v200v200l28,30c23,26 261,218 271,220c2,0 51,-37 109,-82z"></path></g></g></g></svg>