<svg version="1.1" xmlns="http://www.w3.org/2000/svg" xmlns:xlink="http://www.w3.org/1999/xlink" width="96.000000pt" height="96.000000pt" viewBox="0,0,256,256"><g fill="#ffffff" fill-rule="nonzero" stroke="none" stroke-width="1" stroke-linecap="butt" stroke-linejoin="miter" stroke-miterlimit="10" stroke-dasharray="" stroke-dashoffset="0" font-family="none" font-weight="none" font-size="none" text-anchor="none" style="mix-blend-mode: normal"><g transform="translate(-0.13333,18.84453) scale(2.66667,2.66667)"><g transform="translate(0,96) scale(0.1,-0.1)"><path d="M549,891l-30,-30l3,-158c3,-186 4,-187 97,-124c59,41 61,41 151,41c88,0 93,1 121,29c28,28 29,33 29,121c0,88 -1,93 -29,121l-29,29h-142h-142zM855,770v-85l-99,-3c-85,-2 -103,-6 -135,-28l-36,-24l-3,102c-1,56 0,108 2,115c4,11 34,13 138,11l133,-3z"></path><path d="M142,757c-21,-22 -22,-31 -22,-238c0,-212 0,-216 23,-237c23,-22 29,-22 338,-22h316l21,23c20,22 22,33 22,160v137h-30h-30v-130v-130h-300h-300v200v200h150h150v30v30h-158c-153,0 -159,-1 -180,-23z"></path><path d="M44,225c-4,-8 -4,-22 0,-30c5,-13 60,-15 438,-13l433,3v25v25l-433,3c-378,2 -433,0 -438,-13z"></path></g></g></g></svg>