<?xml version="1.0" standalone="no"?>
<!DOCTYPE svg PUBLIC "-//W3C//DTD SVG 20010904//EN"
 "http://www.w3.org/TR/2001/REC-SVG-20010904/DTD/svg10.dtd">
<svg version="1.0" xmlns="http://www.w3.org/2000/svg"
 width="96.000000pt" height="96.000000pt" viewBox="0 0 96.000000 96.000000"
 preserveAspectRatio="xMidYMid meet">

<g transform="translate(0.000000,96.000000) scale(0.100000,-0.100000)"
fill="#000000" stroke="none">
<path d="M109 831 l-29 -29 0 -242 0 -242 29 -29 c29 -28 32 -29 130 -29 l101
0 0 -49 0 -50 -47 -3 c-44 -3 -48 -5 -48 -28 l0 -25 235 0 235 0 0 25 c0 23
-4 25 -47 28 l-48 3 0 50 0 49 101 0 c98 0 101 1 130 29 l29 29 0 242 0 242
-29 29 -29 29 -342 0 -342 0 -29 -29z m706 -271 l0 -235 -335 0 -335 0 -3 225
c-1 123 0 230 3 237 3 11 73 13 337 11 l333 -3 0 -235z m-255 -350 l0 -50 -80
0 -80 0 0 50 0 50 80 0 80 0 0 -50z"/>
<path d="M487 713 c-12 -22 -68 -286 -63 -299 3 -9 15 -14 28 -12 20 3 26 17
56 147 18 79 31 150 28 157 -6 15 -42 19 -49 7z"/>
<path d="M297 616 c-20 -25 -37 -50 -37 -56 0 -6 17 -31 37 -56 26 -30 44 -44
58 -42 30 5 30 37 -1 69 l-28 29 28 29 c31 32 31 64 1 69 -14 2 -32 -12 -58
-42z"/>
<path d="M587 653 c-14 -13 -6 -38 20 -65 l27 -28 -28 -29 c-31 -32 -31 -64
-1 -69 14 -2 32 12 58 42 20 25 37 50 37 56 0 6 -17 31 -37 56 -35 41 -60 53
-76 37z"/>
</g>
</svg>
