<svg version="1.1" xmlns="http://www.w3.org/2000/svg" xmlns:xlink="http://www.w3.org/1999/xlink" width="96.000000pt" height="96.000000pt" viewBox="0,0,256,256"><g fill="#ffffff" fill-rule="nonzero" stroke="none" stroke-width="1" stroke-linecap="butt" stroke-linejoin="miter" stroke-miterlimit="10" stroke-dasharray="" stroke-dashoffset="0" font-family="none" font-weight="none" font-size="none" text-anchor="none" style="mix-blend-mode: normal"><g transform="translate(0,0.66667) scale(2.66667,2.66667)"><g transform="translate(0,96) scale(0.1,-0.1)"><path d="M109,831l-29,-29v-242v-242l29,-29c29,-28 32,-29 130,-29h101v-49v-50l-47,-3c-44,-3 -48,-5 -48,-28v-25h235h235v25c0,23 -4,25 -47,28l-48,3v50v49h101c98,0 101,1 130,29l29,29v242v242l-29,29l-29,29h-342h-342zM815,560v-235h-335h-335l-3,225c-1,123 0,230 3,237c3,11 73,13 337,11l333,-3zM560,210v-50h-80h-80v50v50h80h80z"></path><path d="M487,713c-12,-22 -68,-286 -63,-299c3,-9 15,-14 28,-12c20,3 26,17 56,147c18,79 31,150 28,157c-6,15 -42,19 -49,7z"></path><path d="M297,616c-20,-25 -37,-50 -37,-56c0,-6 17,-31 37,-56c26,-30 44,-44 58,-42c30,5 30,37 -1,69l-28,29l28,29c31,32 31,64 1,69c-14,2 -32,-12 -58,-42z"></path><path d="M587,653c-14,-13 -6,-38 20,-65l27,-28l-28,-29c-31,-32 -31,-64 -1,-69c14,-2 32,12 58,42c20,25 37,50 37,56c0,6 -17,31 -37,56c-35,41 -60,53 -76,37z"></path></g></g></g></svg>