<svg version="1.1" xmlns="http://www.w3.org/2000/svg" xmlns:xlink="http://www.w3.org/1999/xlink" width="671.000000pt" height="672.000000pt" viewBox="0,0,255.60938,256"><g fill="#ffffff" fill-rule="nonzero" stroke="none" stroke-width="1" stroke-linecap="butt" stroke-linejoin="miter" stroke-miterlimit="10" stroke-dasharray="" stroke-dashoffset="0" font-family="none" font-weight="none" font-size="none" text-anchor="none" style="mix-blend-mode: normal"><g transform="translate(-0.00484,0) scale(0.38095,0.38095)"><g transform="translate(0,672) scale(0.1,-0.1)"><path d="M0,3360v-3360h3355h3355v3360v3360h-3355h-3355zM2074,3846c33,-14 34,-16 155,-377c112,-337 120,-365 106,-386c-15,-22 -75,-41 -94,-28c-6,3 -61,160 -123,348l-111,342l-104,-320c-57,-176 -109,-331 -116,-345c-16,-31 -46,-36 -86,-15c-21,10 -31,23 -31,38c0,12 53,181 118,376c112,338 118,354 147,367c39,17 98,17 139,0zM3228,3848c17,-17 17,-769 0,-786c-21,-21 -85,-15 -102,10c-24,34 -24,732 0,766c17,25 81,31 102,10zM3657,3830c18,-36 18,-714 0,-750c-9,-19 -22,-26 -50,-28c-70,-6 -67,-22 -67,402c0,292 3,385 12,394c7,7 30,12 53,10c31,-2 42,-9 52,-28zM1507,3830c73,-32 83,-61 83,-230c0,-128 -2,-149 -20,-178c-32,-52 -87,-72 -203,-72c-94,0 -98,1 -109,25c-8,19 -8,31 0,50c11,24 16,25 89,25c43,0 83,4 89,8c25,16 34,55 34,142c0,87 -9,126 -34,142c-6,4 -62,8 -123,8h-113v-331c0,-208 -4,-337 -10,-350c-8,-14 -21,-19 -55,-19c-34,0 -47,5 -55,19c-6,13 -10,150 -10,378c0,308 2,362 16,381c15,21 20,22 197,22c158,0 188,-3 224,-20zM2894,3827c60,-34 78,-65 84,-145c4,-61 2,-72 -17,-91c-25,-25 -58,-27 -89,-5c-18,12 -22,25 -22,70c0,84 -15,94 -143,94c-158,0 -147,22 -147,-295c0,-317 -11,-295 147,-295c127,0 143,10 143,93c0,29 5,58 12,65c7,7 31,12 55,12c56,0 67,-21 60,-108c-6,-74 -25,-106 -83,-139c-35,-21 -52,-23 -187,-23c-164,0 -193,7 -242,59l-30,32l-3,292c-3,334 -1,342 78,384c39,21 56,23 194,23c138,0 154,-2 190,-23zM4256,3826c3,-13 4,-35 2,-47c-3,-24 -3,-24 -165,-27l-163,-2v-295v-295h163c113,0 167,-4 175,-12c15,-15 15,-61 0,-76c-15,-15 -410,-17 -439,-2c-18,10 -19,25 -19,383c0,277 3,376 12,385c9,9 72,12 220,12h208zM4844,3827c62,-35 80,-67 84,-151c4,-68 2,-75 -19,-90c-29,-20 -58,-20 -87,0c-18,12 -22,25 -22,70c0,84 -15,94 -143,94c-158,0 -147,22 -147,-295c0,-317 -11,-295 147,-295c127,0 143,10 143,93c0,64 11,77 66,77c58,0 67,-15 62,-100c-4,-80 -22,-112 -84,-148c-37,-21 -48,-22 -200,-20c-160,3 -161,3 -198,32c-63,48 -66,63 -66,361c0,282 4,309 50,350c42,38 71,43 225,44c138,1 153,-1 189,-22zM5534,3827c22,-12 49,-35 60,-50c20,-27 21,-40 21,-322c0,-282 -1,-295 -21,-322c-11,-15 -38,-38 -60,-50c-35,-21 -52,-23 -187,-23c-164,0 -193,7 -242,59l-30,32l-3,292c-3,334 -1,342 78,384c39,21 56,23 194,23c138,0 154,-2 190,-23zM3445,3537c59,-50 20,-147 -60,-147c-39,0 -85,46 -85,85c0,13 12,37 26,54c32,39 80,42 119,8zM4164,3529c14,-17 26,-41 26,-54c0,-13 -12,-37 -26,-54c-52,-62 -148,-27 -148,54c0,81 96,116 148,54zM2052,3356c57,-43 28,-135 -44,-136c-41,0 -59,10 -73,44c-14,34 -5,73 22,94c22,16 73,15 95,-2z"></path><path d="M5222,3734c-22,-15 -22,-18 -22,-279c0,-317 -11,-295 147,-295c152,0 143,-19 143,295c0,314 9,295 -143,295c-77,0 -108,-4 -125,-16z"></path></g></g></g></svg>