<?xml version="1.0" standalone="no"?>
<!DOCTYPE svg PUBLIC "-//W3C//DTD SVG 20010904//EN"
 "http://www.w3.org/TR/2001/REC-SVG-20010904/DTD/svg10.dtd">
<svg version="1.0" xmlns="http://www.w3.org/2000/svg"
 width="671.000000pt" height="672.000000pt" viewBox="0 0 671.000000 672.000000"
 preserveAspectRatio="xMidYMid meet">

<g transform="translate(0.000000,672.000000) scale(0.100000,-0.100000)"
fill="#000000" stroke="none">
<path d="M0 3360 l0 -3360 3355 0 3355 0 0 3360 0 3360 -3355 0 -3355 0 0
-3360z m2074 486 c33 -14 34 -16 155 -377 112 -337 120 -365 106 -386 -15 -22
-75 -41 -94 -28 -6 3 -61 160 -123 348 l-111 342 -104 -320 c-57 -176 -109
-331 -116 -345 -16 -31 -46 -36 -86 -15 -21 10 -31 23 -31 38 0 12 53 181 118
376 112 338 118 354 147 367 39 17 98 17 139 0z m1154 2 c17 -17 17 -769 0
-786 -21 -21 -85 -15 -102 10 -24 34 -24 732 0 766 17 25 81 31 102 10z m429
-18 c18 -36 18 -714 0 -750 -9 -19 -22 -26 -50 -28 -70 -6 -67 -22 -67 402 0
292 3 385 12 394 7 7 30 12 53 10 31 -2 42 -9 52 -28z m-2150 0 c73 -32 83
-61 83 -230 0 -128 -2 -149 -20 -178 -32 -52 -87 -72 -203 -72 -94 0 -98 1
-109 25 -8 19 -8 31 0 50 11 24 16 25 89 25 43 0 83 4 89 8 25 16 34 55 34
142 0 87 -9 126 -34 142 -6 4 -62 8 -123 8 l-113 0 0 -331 c0 -208 -4 -337
-10 -350 -8 -14 -21 -19 -55 -19 -34 0 -47 5 -55 19 -6 13 -10 150 -10 378 0
308 2 362 16 381 15 21 20 22 197 22 158 0 188 -3 224 -20z m1387 -3 c60 -34
78 -65 84 -145 4 -61 2 -72 -17 -91 -25 -25 -58 -27 -89 -5 -18 12 -22 25 -22
70 0 84 -15 94 -143 94 -158 0 -147 22 -147 -295 0 -317 -11 -295 147 -295
127 0 143 10 143 93 0 29 5 58 12 65 7 7 31 12 55 12 56 0 67 -21 60 -108 -6
-74 -25 -106 -83 -139 -35 -21 -52 -23 -187 -23 -164 0 -193 7 -242 59 l-30
32 -3 292 c-3 334 -1 342 78 384 39 21 56 23 194 23 138 0 154 -2 190 -23z
m1362 -1 c3 -13 4 -35 2 -47 -3 -24 -3 -24 -165 -27 l-163 -2 0 -295 0 -295
163 0 c113 0 167 -4 175 -12 15 -15 15 -61 0 -76 -15 -15 -410 -17 -439 -2
-18 10 -19 25 -19 383 0 277 3 376 12 385 9 9 72 12 220 12 l208 0 6 -24z
m588 1 c62 -35 80 -67 84 -151 4 -68 2 -75 -19 -90 -29 -20 -58 -20 -87 0 -18
12 -22 25 -22 70 0 84 -15 94 -143 94 -158 0 -147 22 -147 -295 0 -317 -11
-295 147 -295 127 0 143 10 143 93 0 64 11 77 66 77 58 0 67 -15 62 -100 -4
-80 -22 -112 -84 -148 -37 -21 -48 -22 -200 -20 -160 3 -161 3 -198 32 -63 48
-66 63 -66 361 0 282 4 309 50 350 42 38 71 43 225 44 138 1 153 -1 189 -22z
m690 0 c22 -12 49 -35 60 -50 20 -27 21 -40 21 -322 0 -282 -1 -295 -21 -322
-11 -15 -38 -38 -60 -50 -35 -21 -52 -23 -187 -23 -164 0 -193 7 -242 59 l-30
32 -3 292 c-3 334 -1 342 78 384 39 21 56 23 194 23 138 0 154 -2 190 -23z
m-2089 -290 c59 -50 20 -147 -60 -147 -39 0 -85 46 -85 85 0 13 12 37 26 54
32 39 80 42 119 8z m719 -8 c14 -17 26 -41 26 -54 0 -13 -12 -37 -26 -54 -52
-62 -148 -27 -148 54 0 81 96 116 148 54z m-2112 -173 c57 -43 28 -135 -44
-136 -41 0 -59 10 -73 44 -14 34 -5 73 22 94 22 16 73 15 95 -2z"/>
<path d="M5222 3734 c-22 -15 -22 -18 -22 -279 0 -317 -11 -295 147 -295 152
0 143 -19 143 295 0 314 9 295 -143 295 -77 0 -108 -4 -125 -16z"/>
</g>
</svg>
